<mxfile host="65bd71144e" pages="3">
    <diagram id="C5RBs43oDa-KdzZeNtuy" name="соглашения">
        <mxGraphModel dx="763" dy="609" grid="1" gridSize="10" guides="1" tooltips="1" connect="1" arrows="1" fold="1" page="1" pageScale="1" pageWidth="827" pageHeight="1169" math="0" shadow="0">
            <root>
                <mxCell id="WIyWlLk6GJQsqaUBKTNV-0"/>
                <mxCell id="WIyWlLk6GJQsqaUBKTNV-1" parent="WIyWlLk6GJQsqaUBKTNV-0"/>
                <mxCell id="oh3JqtAaIGkfGO0pq2-T-4" value="&lt;h1&gt;Определение типа переменной по цветам:&lt;/h1&gt;&lt;p&gt;Для различия типов переменных мы используем разные цвета&lt;/p&gt;" style="text;html=1;strokeColor=none;fillColor=none;spacing=5;spacingTop=-20;whiteSpace=wrap;overflow=hidden;rounded=0;" parent="WIyWlLk6GJQsqaUBKTNV-1" vertex="1">
                    <mxGeometry x="140" y="40" width="570" height="90" as="geometry"/>
                </mxCell>
                <mxCell id="oh3JqtAaIGkfGO0pq2-T-9" value="" style="group;container=0;" parent="WIyWlLk6GJQsqaUBKTNV-1" vertex="1" connectable="0">
                    <mxGeometry x="290" y="160" width="80" height="80" as="geometry"/>
                </mxCell>
                <mxCell id="oh3JqtAaIGkfGO0pq2-T-10" value="" style="group;fontColor=#990000;" parent="WIyWlLk6GJQsqaUBKTNV-1" vertex="1" connectable="0">
                    <mxGeometry x="70" y="160" width="100" height="80" as="geometry"/>
                </mxCell>
                <mxCell id="oh3JqtAaIGkfGO0pq2-T-7" value="&lt;font style=&quot;font-size: 12px;&quot;&gt;digital&lt;/font&gt;" style="ellipse;whiteSpace=wrap;html=1;aspect=fixed;fillColor=#dae8fc;strokeColor=#6c8ebf;fontSize=6;" parent="oh3JqtAaIGkfGO0pq2-T-10" vertex="1">
                    <mxGeometry width="80" height="80" as="geometry"/>
                </mxCell>
                <mxCell id="oh3JqtAaIGkfGO0pq2-T-11" value="" style="group;" parent="WIyWlLk6GJQsqaUBKTNV-1" vertex="1" connectable="0">
                    <mxGeometry x="680" y="160" width="80" height="80" as="geometry"/>
                </mxCell>
                <mxCell id="hUQamRHLZgErTtajZbs2-1" value="" style="group" parent="oh3JqtAaIGkfGO0pq2-T-11" vertex="1" connectable="0">
                    <mxGeometry width="80" height="80" as="geometry"/>
                </mxCell>
                <mxCell id="oh3JqtAaIGkfGO0pq2-T-3" value="" style="ellipse;whiteSpace=wrap;html=1;aspect=fixed;fillColor=#d5e8d4;strokeColor=#82b366;" parent="hUQamRHLZgErTtajZbs2-1" vertex="1">
                    <mxGeometry width="80" height="80" as="geometry"/>
                </mxCell>
                <mxCell id="oh3JqtAaIGkfGO0pq2-T-5" value="others" style="text;html=1;strokeColor=none;fillColor=none;align=center;verticalAlign=middle;whiteSpace=wrap;rounded=0;" parent="hUQamRHLZgErTtajZbs2-1" vertex="1">
                    <mxGeometry x="10" y="25" width="60" height="30" as="geometry"/>
                </mxCell>
                <mxCell id="hUQamRHLZgErTtajZbs2-0" value="" style="group" parent="WIyWlLk6GJQsqaUBKTNV-1" vertex="1" connectable="0">
                    <mxGeometry x="350" y="160" width="80" height="80" as="geometry"/>
                </mxCell>
                <mxCell id="oh3JqtAaIGkfGO0pq2-T-0" value="" style="ellipse;whiteSpace=wrap;html=1;aspect=fixed;fillColor=#f8cecc;strokeColor=#b85450;" parent="hUQamRHLZgErTtajZbs2-0" vertex="1">
                    <mxGeometry width="80" height="80" as="geometry"/>
                </mxCell>
                <mxCell id="oh3JqtAaIGkfGO0pq2-T-6" value="logical" style="text;html=1;strokeColor=none;fillColor=#f8cecc;align=center;verticalAlign=middle;whiteSpace=wrap;rounded=0;fontColor=#990000;" parent="hUQamRHLZgErTtajZbs2-0" vertex="1">
                    <mxGeometry x="5" y="25" width="70" height="30" as="geometry"/>
                </mxCell>
                <mxCell id="BnUkscVENHjL9_o-9Z9L-0" value="&lt;font color=&quot;#990000&quot;&gt;size = 10&lt;/font&gt;" style="shape=parallelogram;html=1;strokeWidth=2;perimeter=parallelogramPerimeter;whiteSpace=wrap;rounded=1;arcSize=12;size=0.23;fillColor=#dae8fc;strokeColor=#6c8ebf;" parent="WIyWlLk6GJQsqaUBKTNV-1" vertex="1">
                    <mxGeometry x="50" y="425" width="140" height="80" as="geometry"/>
                </mxCell>
                <mxCell id="JHtGbK1EyXyiwenj0ndc-3" value="&lt;font size=&quot;1&quot; color=&quot;#990000&quot;&gt;&lt;b style=&quot;font-size: 16px;&quot;&gt;if x&lt;/b&gt;&lt;/font&gt;" style="strokeWidth=2;html=1;shape=mxgraph.flowchart.decision;whiteSpace=wrap;fontSize=12;fillColor=#f8cecc;strokeColor=#b85450;" parent="WIyWlLk6GJQsqaUBKTNV-1" vertex="1">
                    <mxGeometry x="320" y="400" width="140" height="130" as="geometry"/>
                </mxCell>
                <mxCell id="JHtGbK1EyXyiwenj0ndc-4" value="&lt;font color=&quot;#990000&quot;&gt;input(name)&lt;/font&gt;" style="html=1;strokeWidth=2;shape=manualInput;whiteSpace=wrap;rounded=1;size=26;arcSize=11;fontSize=16;fillColor=#d5e8d4;strokeColor=#82b366;" parent="WIyWlLk6GJQsqaUBKTNV-1" vertex="1">
                    <mxGeometry x="670" y="435" width="100" height="60" as="geometry"/>
                </mxCell>
            </root>
        </mxGraphModel>
    </diagram>
    <diagram id="MA_mnQzHssvzxokcoehX" name="Алгоритм рисования квадрата (turtle)">
        <mxGraphModel dx="1174" dy="937" grid="1" gridSize="10" guides="1" tooltips="1" connect="1" arrows="1" fold="1" page="1" pageScale="1" pageWidth="827" pageHeight="1169" math="0" shadow="0">
            <root>
                <mxCell id="0"/>
                <mxCell id="1" parent="0"/>
                <mxCell id="PE0DSJoV52jJnSJCoUe7-5" value="" style="group" parent="1" vertex="1" connectable="0">
                    <mxGeometry x="100" y="50" width="460" height="870" as="geometry"/>
                </mxCell>
                <mxCell id="Sk4l-FjkLbWvW41eQupe-1" value="START" style="strokeWidth=2;html=1;shape=mxgraph.flowchart.terminator;whiteSpace=wrap;fontColor=#990000;" parent="PE0DSJoV52jJnSJCoUe7-5" vertex="1">
                    <mxGeometry x="149.5" width="161" height="78.20224719101125" as="geometry"/>
                </mxCell>
                <mxCell id="mvtJYzwhlbqhgCBvEZQb-1" value="&lt;font style=&quot;font-size: 14px;&quot; color=&quot;#990000&quot;&gt;size = 10&lt;/font&gt;" style="shape=parallelogram;html=1;strokeWidth=2;perimeter=parallelogramPerimeter;whiteSpace=wrap;rounded=1;arcSize=0;size=0.1607142857142857;fillColor=#dae8fc;strokeColor=#6c8ebf;" parent="PE0DSJoV52jJnSJCoUe7-5" vertex="1">
                    <mxGeometry x="149.5" y="136.85393258426967" width="161" height="78.20224719101125" as="geometry"/>
                </mxCell>
                <mxCell id="mvtJYzwhlbqhgCBvEZQb-3" style="edgeStyle=orthogonalEdgeStyle;rounded=0;orthogonalLoop=1;jettySize=auto;html=1;exitX=0.5;exitY=1;exitDx=0;exitDy=0;exitPerimeter=0;fontSize=16;fontColor=#990000;" parent="PE0DSJoV52jJnSJCoUe7-5" source="Sk4l-FjkLbWvW41eQupe-1" target="mvtJYzwhlbqhgCBvEZQb-1" edge="1">
                    <mxGeometry relative="1" as="geometry"/>
                </mxCell>
                <mxCell id="mvtJYzwhlbqhgCBvEZQb-2" value="" style="verticalLabelPosition=bottom;verticalAlign=top;html=1;shape=hexagon;perimeter=hexagonPerimeter2;arcSize=6;size=0.1875;fontSize=16;fillColor=#dae8fc;strokeColor=#6c8ebf;" parent="PE0DSJoV52jJnSJCoUe7-5" vertex="1">
                    <mxGeometry x="138" y="263.9325842696629" width="184" height="87.97752808988766" as="geometry"/>
                </mxCell>
                <mxCell id="mvtJYzwhlbqhgCBvEZQb-5" style="edgeStyle=orthogonalEdgeStyle;rounded=0;orthogonalLoop=1;jettySize=auto;html=1;fontSize=16;fontColor=#990000;" parent="PE0DSJoV52jJnSJCoUe7-5" source="mvtJYzwhlbqhgCBvEZQb-1" target="mvtJYzwhlbqhgCBvEZQb-2" edge="1">
                    <mxGeometry relative="1" as="geometry"/>
                </mxCell>
                <mxCell id="mvtJYzwhlbqhgCBvEZQb-7" value="PUSH&amp;nbsp;" style="rounded=1;whiteSpace=wrap;html=1;absoluteArcSize=1;arcSize=14;strokeWidth=2;fontSize=16;fontColor=#990000;" parent="PE0DSJoV52jJnSJCoUe7-5" vertex="1">
                    <mxGeometry x="57.5" y="444.7752808988764" width="345" height="97.75280898876406" as="geometry"/>
                </mxCell>
                <mxCell id="mvtJYzwhlbqhgCBvEZQb-6" style="edgeStyle=orthogonalEdgeStyle;rounded=0;orthogonalLoop=1;jettySize=auto;html=1;fontSize=16;fontColor=#990000;entryX=0.5;entryY=0;entryDx=0;entryDy=0;" parent="PE0DSJoV52jJnSJCoUe7-5" source="mvtJYzwhlbqhgCBvEZQb-2" target="mvtJYzwhlbqhgCBvEZQb-7" edge="1">
                    <mxGeometry relative="1" as="geometry">
                        <mxPoint x="230" y="576.7415730337079" as="targetPoint"/>
                    </mxGeometry>
                </mxCell>
                <mxCell id="mvtJYzwhlbqhgCBvEZQb-14" value="" style="edgeStyle=orthogonalEdgeStyle;rounded=0;orthogonalLoop=1;jettySize=auto;html=1;fontSize=16;fontColor=#990000;" parent="PE0DSJoV52jJnSJCoUe7-5" source="mvtJYzwhlbqhgCBvEZQb-2" target="mvtJYzwhlbqhgCBvEZQb-7" edge="1">
                    <mxGeometry relative="1" as="geometry"/>
                </mxCell>
                <mxCell id="mvtJYzwhlbqhgCBvEZQb-11" style="edgeStyle=orthogonalEdgeStyle;rounded=0;orthogonalLoop=1;jettySize=auto;html=1;fontSize=16;fontColor=#990000;entryX=0;entryY=0.5;entryDx=0;entryDy=0;" parent="PE0DSJoV52jJnSJCoUe7-5" source="mvtJYzwhlbqhgCBvEZQb-8" target="mvtJYzwhlbqhgCBvEZQb-2" edge="1">
                    <mxGeometry relative="1" as="geometry">
                        <mxPoint x="-57.5" y="391.01123595505624" as="targetPoint"/>
                        <Array as="points">
                            <mxPoint x="230" y="733.1460674157304"/>
                            <mxPoint y="733.1460674157304"/>
                            <mxPoint y="307.92134831460675"/>
                        </Array>
                    </mxGeometry>
                </mxCell>
                <mxCell id="mvtJYzwhlbqhgCBvEZQb-8" value="TURN LEFT 90" style="rounded=1;whiteSpace=wrap;html=1;absoluteArcSize=1;arcSize=14;strokeWidth=2;fontSize=16;fontColor=#990000;" parent="PE0DSJoV52jJnSJCoUe7-5" vertex="1">
                    <mxGeometry x="57.5" y="596.2921348314607" width="345" height="97.75280898876406" as="geometry"/>
                </mxCell>
                <mxCell id="mvtJYzwhlbqhgCBvEZQb-9" style="edgeStyle=orthogonalEdgeStyle;rounded=0;orthogonalLoop=1;jettySize=auto;html=1;fontSize=16;fontColor=#990000;" parent="PE0DSJoV52jJnSJCoUe7-5" source="mvtJYzwhlbqhgCBvEZQb-7" target="mvtJYzwhlbqhgCBvEZQb-8" edge="1">
                    <mxGeometry relative="1" as="geometry"/>
                </mxCell>
                <mxCell id="mvtJYzwhlbqhgCBvEZQb-13" value="START" style="strokeWidth=2;html=1;shape=mxgraph.flowchart.terminator;whiteSpace=wrap;fontColor=#990000;" parent="PE0DSJoV52jJnSJCoUe7-5" vertex="1">
                    <mxGeometry x="149.5" y="791.7977528089888" width="161" height="78.20224719101125" as="geometry"/>
                </mxCell>
                <mxCell id="mvtJYzwhlbqhgCBvEZQb-12" style="edgeStyle=orthogonalEdgeStyle;rounded=0;orthogonalLoop=1;jettySize=auto;html=1;fontSize=16;fontColor=#990000;exitX=1;exitY=0.5;exitDx=0;exitDy=0;entryX=0.5;entryY=0;entryDx=0;entryDy=0;entryPerimeter=0;" parent="PE0DSJoV52jJnSJCoUe7-5" source="mvtJYzwhlbqhgCBvEZQb-2" target="mvtJYzwhlbqhgCBvEZQb-13" edge="1">
                    <mxGeometry relative="1" as="geometry">
                        <mxPoint x="253" y="977.5280898876405" as="targetPoint"/>
                        <Array as="points">
                            <mxPoint x="460" y="307.92134831460675"/>
                            <mxPoint x="460" y="752.6966292134832"/>
                            <mxPoint x="230" y="752.6966292134832"/>
                        </Array>
                    </mxGeometry>
                </mxCell>
                <mxCell id="mvtJYzwhlbqhgCBvEZQb-15" value="RANGE 4" style="text;html=1;strokeColor=none;fillColor=none;align=center;verticalAlign=middle;whiteSpace=wrap;rounded=0;fontSize=16;fontColor=#990000;" parent="PE0DSJoV52jJnSJCoUe7-5" vertex="1">
                    <mxGeometry x="178.25" y="293.2584269662922" width="103.5" height="29.325842696629216" as="geometry"/>
                </mxCell>
                <mxCell id="mvtJYzwhlbqhgCBvEZQb-16" value="&lt;font color=&quot;#660000&quot;&gt;SIZE&lt;/font&gt;" style="rounded=1;whiteSpace=wrap;html=1;fontSize=14;fillColor=#dae8fc;strokeColor=#6c8ebf;" parent="PE0DSJoV52jJnSJCoUe7-5" vertex="1">
                    <mxGeometry x="276" y="478.9887640449439" width="69" height="29.325842696629216" as="geometry"/>
                </mxCell>
            </root>
        </mxGraphModel>
    </diagram>
    <diagram id="zJ-iYJXERFjZ3Ld4aQrv" name="Алгорифм рисования треугольника">
        <mxGraphModel dx="763" dy="609" grid="1" gridSize="10" guides="1" tooltips="1" connect="1" arrows="1" fold="1" page="1" pageScale="1" pageWidth="827" pageHeight="1169" math="0" shadow="0">
            <root>
                <mxCell id="0"/>
                <mxCell id="1" parent="0"/>
                <mxCell id="woF5_MhZP0N7o-3nMs3v-1" value="" style="group" parent="1" vertex="1" connectable="0">
                    <mxGeometry x="170" y="130" width="460" height="870" as="geometry"/>
                </mxCell>
                <mxCell id="woF5_MhZP0N7o-3nMs3v-2" value="START" style="strokeWidth=2;html=1;shape=mxgraph.flowchart.terminator;whiteSpace=wrap;fontColor=#990000;" parent="woF5_MhZP0N7o-3nMs3v-1" vertex="1">
                    <mxGeometry x="149.5" width="161" height="78.20224719101125" as="geometry"/>
                </mxCell>
                <mxCell id="woF5_MhZP0N7o-3nMs3v-3" value="&lt;font style=&quot;font-size: 14px;&quot; color=&quot;#990000&quot;&gt;size = 10&lt;/font&gt;" style="shape=parallelogram;html=1;strokeWidth=2;perimeter=parallelogramPerimeter;whiteSpace=wrap;rounded=1;arcSize=0;size=0.1607142857142857;fillColor=#dae8fc;strokeColor=#6c8ebf;" parent="woF5_MhZP0N7o-3nMs3v-1" vertex="1">
                    <mxGeometry x="149.5" y="136.85393258426967" width="161" height="78.20224719101125" as="geometry"/>
                </mxCell>
                <mxCell id="woF5_MhZP0N7o-3nMs3v-4" style="edgeStyle=orthogonalEdgeStyle;rounded=0;orthogonalLoop=1;jettySize=auto;html=1;exitX=0.5;exitY=1;exitDx=0;exitDy=0;exitPerimeter=0;fontSize=16;fontColor=#990000;" parent="woF5_MhZP0N7o-3nMs3v-1" source="woF5_MhZP0N7o-3nMs3v-2" target="woF5_MhZP0N7o-3nMs3v-3" edge="1">
                    <mxGeometry relative="1" as="geometry"/>
                </mxCell>
                <mxCell id="woF5_MhZP0N7o-3nMs3v-5" value="" style="verticalLabelPosition=bottom;verticalAlign=top;html=1;shape=hexagon;perimeter=hexagonPerimeter2;arcSize=6;size=0.1875;fontSize=16;fillColor=#dae8fc;strokeColor=#6c8ebf;" parent="woF5_MhZP0N7o-3nMs3v-1" vertex="1">
                    <mxGeometry x="138" y="263.9325842696629" width="184" height="87.97752808988766" as="geometry"/>
                </mxCell>
                <mxCell id="woF5_MhZP0N7o-3nMs3v-6" style="edgeStyle=orthogonalEdgeStyle;rounded=0;orthogonalLoop=1;jettySize=auto;html=1;fontSize=16;fontColor=#990000;" parent="woF5_MhZP0N7o-3nMs3v-1" source="woF5_MhZP0N7o-3nMs3v-3" target="woF5_MhZP0N7o-3nMs3v-5" edge="1">
                    <mxGeometry relative="1" as="geometry"/>
                </mxCell>
                <mxCell id="woF5_MhZP0N7o-3nMs3v-7" value="PUSH&amp;nbsp;" style="rounded=1;whiteSpace=wrap;html=1;absoluteArcSize=1;arcSize=14;strokeWidth=2;fontSize=16;fontColor=#990000;" parent="woF5_MhZP0N7o-3nMs3v-1" vertex="1">
                    <mxGeometry x="57.5" y="444.7752808988764" width="345" height="97.75280898876406" as="geometry"/>
                </mxCell>
                <mxCell id="woF5_MhZP0N7o-3nMs3v-8" style="edgeStyle=orthogonalEdgeStyle;rounded=0;orthogonalLoop=1;jettySize=auto;html=1;fontSize=16;fontColor=#990000;entryX=0.5;entryY=0;entryDx=0;entryDy=0;" parent="woF5_MhZP0N7o-3nMs3v-1" source="woF5_MhZP0N7o-3nMs3v-5" target="woF5_MhZP0N7o-3nMs3v-7" edge="1">
                    <mxGeometry relative="1" as="geometry">
                        <mxPoint x="230" y="576.7415730337079" as="targetPoint"/>
                    </mxGeometry>
                </mxCell>
                <mxCell id="woF5_MhZP0N7o-3nMs3v-9" value="" style="edgeStyle=orthogonalEdgeStyle;rounded=0;orthogonalLoop=1;jettySize=auto;html=1;fontSize=16;fontColor=#990000;" parent="woF5_MhZP0N7o-3nMs3v-1" source="woF5_MhZP0N7o-3nMs3v-5" target="woF5_MhZP0N7o-3nMs3v-7" edge="1">
                    <mxGeometry relative="1" as="geometry"/>
                </mxCell>
                <mxCell id="woF5_MhZP0N7o-3nMs3v-10" style="edgeStyle=orthogonalEdgeStyle;rounded=0;orthogonalLoop=1;jettySize=auto;html=1;fontSize=16;fontColor=#990000;entryX=0;entryY=0.5;entryDx=0;entryDy=0;" parent="woF5_MhZP0N7o-3nMs3v-1" source="woF5_MhZP0N7o-3nMs3v-11" target="woF5_MhZP0N7o-3nMs3v-5" edge="1">
                    <mxGeometry relative="1" as="geometry">
                        <mxPoint x="-57.5" y="391.01123595505624" as="targetPoint"/>
                        <Array as="points">
                            <mxPoint x="230" y="733.1460674157304"/>
                            <mxPoint y="733.1460674157304"/>
                            <mxPoint y="307.92134831460675"/>
                        </Array>
                    </mxGeometry>
                </mxCell>
                <mxCell id="woF5_MhZP0N7o-3nMs3v-11" value="TURN LEFT 90" style="rounded=1;whiteSpace=wrap;html=1;absoluteArcSize=1;arcSize=14;strokeWidth=2;fontSize=16;fontColor=#990000;" parent="woF5_MhZP0N7o-3nMs3v-1" vertex="1">
                    <mxGeometry x="57.5" y="596.2921348314607" width="345" height="97.75280898876406" as="geometry"/>
                </mxCell>
                <mxCell id="woF5_MhZP0N7o-3nMs3v-12" style="edgeStyle=orthogonalEdgeStyle;rounded=0;orthogonalLoop=1;jettySize=auto;html=1;fontSize=16;fontColor=#990000;" parent="woF5_MhZP0N7o-3nMs3v-1" source="woF5_MhZP0N7o-3nMs3v-7" target="woF5_MhZP0N7o-3nMs3v-11" edge="1">
                    <mxGeometry relative="1" as="geometry"/>
                </mxCell>
                <mxCell id="woF5_MhZP0N7o-3nMs3v-13" value="START" style="strokeWidth=2;html=1;shape=mxgraph.flowchart.terminator;whiteSpace=wrap;fontColor=#990000;" parent="woF5_MhZP0N7o-3nMs3v-1" vertex="1">
                    <mxGeometry x="149.5" y="791.7977528089888" width="161" height="78.20224719101125" as="geometry"/>
                </mxCell>
                <mxCell id="woF5_MhZP0N7o-3nMs3v-14" style="edgeStyle=orthogonalEdgeStyle;rounded=0;orthogonalLoop=1;jettySize=auto;html=1;fontSize=16;fontColor=#990000;exitX=1;exitY=0.5;exitDx=0;exitDy=0;entryX=0.5;entryY=0;entryDx=0;entryDy=0;entryPerimeter=0;" parent="woF5_MhZP0N7o-3nMs3v-1" source="woF5_MhZP0N7o-3nMs3v-5" target="woF5_MhZP0N7o-3nMs3v-13" edge="1">
                    <mxGeometry relative="1" as="geometry">
                        <mxPoint x="253" y="977.5280898876405" as="targetPoint"/>
                        <Array as="points">
                            <mxPoint x="460" y="307.92134831460675"/>
                            <mxPoint x="460" y="752.6966292134832"/>
                            <mxPoint x="230" y="752.6966292134832"/>
                        </Array>
                    </mxGeometry>
                </mxCell>
                <mxCell id="woF5_MhZP0N7o-3nMs3v-15" value="RANGE 10" style="text;html=1;strokeColor=none;fillColor=none;align=center;verticalAlign=middle;whiteSpace=wrap;rounded=0;fontSize=16;fontColor=#990000;" parent="woF5_MhZP0N7o-3nMs3v-1" vertex="1">
                    <mxGeometry x="178.25" y="293.2584269662922" width="103.5" height="29.325842696629216" as="geometry"/>
                </mxCell>
                <mxCell id="woF5_MhZP0N7o-3nMs3v-16" value="&lt;font color=&quot;#660000&quot;&gt;SIZE&lt;/font&gt;" style="rounded=1;whiteSpace=wrap;html=1;fontSize=14;fillColor=#dae8fc;strokeColor=#6c8ebf;" parent="woF5_MhZP0N7o-3nMs3v-1" vertex="1">
                    <mxGeometry x="276" y="478.9887640449439" width="69" height="29.325842696629216" as="geometry"/>
                </mxCell>
            </root>
        </mxGraphModel>
    </diagram>
</mxfile>